<?xml version="1.0" encoding="UTF-8"?>
<!-- Generator: Adobe Illustrator 22.1.0, SVG Export Plug-In . SVG Version: 6.00 Build 0)  -->
<svg version="1.1" id="Layer_1" xmlns="http://www.w3.org/2000/svg" xmlns:xlink="http://www.w3.org/1999/xlink" x="0px" y="0px" viewBox="0 0 50.5 61.7" style="enable-background:new 0 0 50.5 61.7;" xml:space="preserve">
<style type="text/css">
	.st0{opacity:0.98;}
	.st1{fill:#AF222D;}
</style>
<g class="st0">
	<path class="st1" d="M47.1,7h-1.8v44.3c0,2.9-2.4,5.3-5.3,5.3H7.1v1.6c0,1.9,1.5,3.4,3.4,3.4h36.6c1.9,0,3.4-1.5,3.4-3.4V10.4   C50.5,8.5,49,7,47.1,7L47.1,7z M47.1,7"/>
	<path class="st1" d="M21.7,54.7H40c1.9,0,3.4-1.5,3.4-3.4V3.4C43.4,1.5,41.8,0,40,0H15.6v1.1c0,0.1,0,0.2,0,0.4v9.3   c0,2.6-2.2,4.8-4.8,4.8H1.5c-0.1,0-0.2,0-0.3,0H0v35.7c0,1.9,1.5,3.4,3.4,3.4H21.7z M22.4,43.1H10.5c-0.9,0-1.6-0.7-1.6-1.6   c0-0.9,0.7-1.6,1.6-1.6h11.9c0.9,0,1.6,0.7,1.6,1.6C24,42.4,23.3,43.1,22.4,43.1L22.4,43.1z M34.3,34.9H10.5   c-0.9,0-1.6-0.7-1.6-1.6c0-0.9,0.7-1.6,1.6-1.6h23.8c0.9,0,1.6,0.7,1.6,1.6C35.9,34.2,35.2,34.9,34.3,34.9L34.3,34.9z M10.5,23   h23.8c0.9,0,1.6,0.7,1.6,1.6c0,0.9-0.7,1.6-1.6,1.6H10.5c-0.9,0-1.6-0.7-1.6-1.6C8.8,23.7,9.6,23,10.5,23L10.5,23z M10.5,23"/>
	<path class="st1" d="M1.5,13.7h9.4c1.6,0,2.8-1.3,2.8-2.8V1.5c0-0.9-0.7-1.4-1.4-1.4c-0.4,0-0.7,0.1-1,0.4L0.5,11.2   C-0.4,12.1,0.2,13.7,1.5,13.7L1.5,13.7z M1.5,13.7"/>
</g>
</svg>